<mxfile host="app.diagrams.net" modified="2023-11-07T00:00:00.000Z" agent="5.0 (Macintosh)" etag="555666777" version="15.5.0" type="device">
  <diagram id="configuration-ui-flow" name="Configuration UI Flow">
    <mxGraphModel dx="1298" dy="834" grid="1" gridSize="10" guides="1" tooltips="1" connect="1" arrows="1" fold="1" page="1" pageScale="1" pageWidth="850" pageHeight="1100" math="0" shadow="0">
      <root>
        <mxCell id="0" />
        <mxCell id="1" parent="0" />
        <!-- Main background -->
        <mxCell id="2" value="" style="rounded=1;whiteSpace=wrap;html=1;fillColor=#F5F5F5;strokeColor=#CCCCCC;strokeWidth=2;" vertex="1" parent="1">
          <mxGeometry x="50" y="50" width="700" height="500" as="geometry" />
        </mxCell>
        <mxCell id="3" value="Configuration UI Flow" style="text;html=1;strokeColor=none;fillColor=none;align=center;verticalAlign=middle;whiteSpace=wrap;rounded=0;fontSize=20;fontStyle=1;" vertex="1" parent="1">
          <mxGeometry x="250" y="10" width="300" height="30" as="geometry" />
        </mxCell>
        
        <!-- VS Code Sidebar -->
        <mxCell id="4" value="VS Code Sidebar" style="rounded=1;whiteSpace=wrap;html=1;fillColor=#2C2C32;strokeColor=#007ACC;strokeWidth=2;fontColor=#FFFFFF;fontSize=14;" vertex="1" parent="1">
          <mxGeometry x="100" y="100" width="200" height="80" as="geometry" />
        </mxCell>
        
        <!-- Provider Config Panel -->
        <mxCell id="5" value="Provider Config Panel" style="rounded=1;whiteSpace=wrap;html=1;fillColor=#68217A;strokeColor=#333333;strokeWidth=2;fontColor=#FFFFFF;fontSize=14;" vertex="1" parent="1">
          <mxGeometry x="400" y="100" width="300" height="100" as="geometry" />
        </mxCell>
        <mxCell id="6" value="- AWS/Google Settings" style="text;html=1;strokeColor=none;fillColor=none;align=center;verticalAlign=middle;whiteSpace=wrap;rounded=0;fontSize=12;fontColor=#CCCCCC;" vertex="1" parent="1">
          <mxGeometry x="400" y="150" width="300" height="20" as="geometry" />
        </mxCell>
        <mxCell id="7" value="- Template Selection" style="text;html=1;strokeColor=none;fillColor=none;align=center;verticalAlign=middle;whiteSpace=wrap;rounded=0;fontSize=12;fontColor=#CCCCCC;" vertex="1" parent="1">
          <mxGeometry x="400" y="170" width="300" height="20" as="geometry" />
        </mxCell>
        
        <!-- Provider Specific -->
        <mxCell id="8" value="AWS Bedrock Config" style="rounded=1;whiteSpace=wrap;html=1;fillColor=#FF9900;strokeColor=#333333;strokeWidth=2;fontSize=14;" vertex="1" parent="1">
          <mxGeometry x="150" y="250" width="200" height="80" as="geometry" />
        </mxCell>
        
        <mxCell id="9" value="Google Gemini Config" style="rounded=1;whiteSpace=wrap;html=1;fillColor=#4285F4;strokeColor=#333333;strokeWidth=2;fontSize=14;" vertex="1" parent="1">
          <mxGeometry x="500" y="250" width="200" height="80" as="geometry" />
        </mxCell>
        
        <!-- Template Config -->
        <mxCell id="10" value="Template Settings" style="rounded=1;whiteSpace=wrap;html=1;fillColor=#9CDCFE;strokeColor=#333333;strokeWidth=2;fontSize=14;" vertex="1" parent="1">
          <mxGeometry x="300" y="400" width="200" height="80" as="geometry" />
        </mxCell>
        <mxCell id="11" value="Default or Custom" style="text;html=1;strokeColor=none;fillColor=none;align=center;verticalAlign=middle;whiteSpace=wrap;rounded=0;fontSize=12;" vertex="1" parent="1">
          <mxGeometry x="300" y="450" width="200" height="20" as="geometry" />
        </mxCell>
        
        <!-- VS Code Settings -->
        <mxCell id="12" value="VS Code Settings" style="rounded=1;whiteSpace=wrap;html=1;fillColor=#007ACC;strokeColor=#333333;strokeWidth=2;fontColor=#FFFFFF;fontSize=14;" vertex="1" parent="1">
          <mxGeometry x="500" y="400" width="200" height="80" as="geometry" />
        </mxCell>
        <mxCell id="13" value="Global Configuration" style="text;html=1;strokeColor=none;fillColor=none;align=center;verticalAlign=middle;whiteSpace=wrap;rounded=0;fontSize=12;fontColor=#FFFFFF;" vertex="1" parent="1">
          <mxGeometry x="500" y="450" width="200" height="20" as="geometry" />
        </mxCell>
        
        <!-- Arrows -->
        <mxCell id="14" value="" style="endArrow=classic;html=1;strokeWidth=2;exitX=1;exitY=0.5;exitDx=0;exitDy=0;entryX=0;entryY=0.5;entryDx=0;entryDy=0;" edge="1" parent="1" source="4" target="5">
          <mxGeometry width="50" height="50" relative="1" as="geometry">
            <mxPoint x="310" y="150" as="sourcePoint" />
            <mxPoint x="360" y="100" as="targetPoint" />
          </mxGeometry>
        </mxCell>
        <mxCell id="15" value="Click Configure" style="edgeLabel;html=1;align=center;verticalAlign=middle;resizable=0;points=[];fontSize=10;" vertex="1" connectable="0" parent="14">
          <mxGeometry x="-0.2" y="1" relative="1" as="geometry">
            <mxPoint y="-9" as="offset" />
          </mxGeometry>
        </mxCell>
        
        <mxCell id="16" value="" style="endArrow=classic;html=1;strokeWidth=2;exitX=0.25;exitY=1;exitDx=0;exitDy=0;entryX=0.5;entryY=0;entryDx=0;entryDy=0;" edge="1" parent="1" source="5" target="8">
          <mxGeometry width="50" height="50" relative="1" as="geometry">
            <mxPoint x="330" y="220" as="sourcePoint" />
            <mxPoint x="380" y="170" as="targetPoint" />
          </mxGeometry>
        </mxCell>
        <mxCell id="17" value="Select AWS" style="edgeLabel;html=1;align=center;verticalAlign=middle;resizable=0;points=[];fontSize=10;" vertex="1" connectable="0" parent="16">
          <mxGeometry x="-0.2" y="1" relative="1" as="geometry">
            <mxPoint x="15" as="offset" />
          </mxGeometry>
        </mxCell>
        
        <mxCell id="18" value="" style="endArrow=classic;html=1;strokeWidth=2;exitX=0.75;exitY=1;exitDx=0;exitDy=0;entryX=0.5;entryY=0;entryDx=0;entryDy=0;" edge="1" parent="1" source="5" target="9">
          <mxGeometry width="50" height="50" relative="1" as="geometry">
            <mxPoint x="480" y="210" as="sourcePoint" />
            <mxPoint x="530" y="160" as="targetPoint" />
          </mxGeometry>
        </mxCell>
        <mxCell id="19" value="Select Google" style="edgeLabel;html=1;align=center;verticalAlign=middle;resizable=0;points=[];fontSize=10;" vertex="1" connectable="0" parent="18">
          <mxGeometry x="-0.2" y="1" relative="1" as="geometry">
            <mxPoint x="20" as="offset" />
          </mxGeometry>
        </mxCell>
        
        <mxCell id="20" value="" style="endArrow=classic;html=1;strokeWidth=2;exitX=0.5;exitY=1;exitDx=0;exitDy=0;entryX=0.5;entryY=0;entryDx=0;entryDy=0;" edge="1" parent="1" source="5" target="10">
          <mxGeometry width="50" height="50" relative="1" as="geometry">
            <mxPoint x="450" y="280" as="sourcePoint" />
            <mxPoint x="500" y="230" as="targetPoint" />
          </mxGeometry>
        </mxCell>
        <mxCell id="21" value="Configure Template" style="edgeLabel;html=1;align=center;verticalAlign=middle;resizable=0;points=[];fontSize=10;" vertex="1" connectable="0" parent="20">
          <mxGeometry x="-0.2" y="1" relative="1" as="geometry">
            <mxPoint x="-1" y="25" as="offset" />
          </mxGeometry>
        </mxCell>
        
        <mxCell id="22" value="" style="endArrow=classic;html=1;strokeWidth=2;exitX=0.5;exitY=1;exitDx=0;exitDy=0;entryX=0.5;entryY=0;entryDx=0;entryDy=0;" edge="1" parent="1" source="8" target="12">
          <mxGeometry width="50" height="50" relative="1" as="geometry">
            <mxPoint x="250" y="340" as="sourcePoint" />
            <mxPoint x="430" y="410" as="targetPoint" />
            <Array as="points">
              <mxPoint x="250" y="360" />
              <mxPoint x="600" y="360" />
            </Array>
          </mxGeometry>
        </mxCell>
        
        <mxCell id="23" value="" style="endArrow=classic;html=1;strokeWidth=2;exitX=0.5;exitY=1;exitDx=0;exitDy=0;entryX=0.5;entryY=0;entryDx=0;entryDy=0;" edge="1" parent="1" source="9" target="12">
          <mxGeometry width="50" height="50" relative="1" as="geometry">
            <mxPoint x="600" y="340" as="sourcePoint" />
            <mxPoint x="650" y="290" as="targetPoint" />
          </mxGeometry>
        </mxCell>
        
        <mxCell id="24" value="" style="endArrow=classic;html=1;strokeWidth=2;exitX=1;exitY=0.5;exitDx=0;exitDy=0;entryX=0;entryY=0.5;entryDx=0;entryDy=0;" edge="1" parent="1" source="10" target="12">
          <mxGeometry width="50" height="50" relative="1" as="geometry">
            <mxPoint x="510" y="450" as="sourcePoint" />
            <mxPoint x="560" y="400" as="targetPoint" />
          </mxGeometry>
        </mxCell>
        <mxCell id="25" value="Save Settings" style="edgeLabel;html=1;align=center;verticalAlign=middle;resizable=0;points=[];fontSize=10;" vertex="1" connectable="0" parent="24">
          <mxGeometry x="-0.2" y="1" relative="1" as="geometry">
            <mxPoint y="11" as="offset" />
          </mxGeometry>
        </mxCell>
      </root>
    </mxGraphModel>
  </diagram>
</mxfile> 